<?xml version="1.0" encoding="UTF-8" standalone="no"?>
<!-- Created with Inkscape (http://www.inkscape.org/) -->

<svg
   width="61.453983mm"
   height="43.055111mm"
   viewBox="0 0 61.453984 43.055111"
   version="1.1"
   id="svg1"
   xml:space="preserve"
   inkscape:export-filename="logoMR.png"
   inkscape:export-xdpi="96"
   inkscape:export-ydpi="96"
   sodipodi:docname="logoMR.svg"
   xmlns:inkscape="http://www.inkscape.org/namespaces/inkscape"
   xmlns:sodipodi="http://sodipodi.sourceforge.net/DTD/sodipodi-0.dtd"
   xmlns="http://www.w3.org/2000/svg"
   xmlns:svg="http://www.w3.org/2000/svg"><sodipodi:namedview
     id="namedview1"
     pagecolor="#ffffff"
     bordercolor="#000000"
     borderopacity="0.25"
     inkscape:showpageshadow="2"
     inkscape:pageopacity="0.0"
     inkscape:pagecheckerboard="0"
     inkscape:deskcolor="#d1d1d1"
     inkscape:document-units="mm"
     showguides="true" /><defs
     id="defs1" /><g
     inkscape:label="Capa 1"
     inkscape:groupmode="layer"
     id="layer1"
     transform="translate(-75.230266,-120.7718)"><path
       style="fill:#2d312e;fill-opacity:1"
       d="m 75.24723,163.6978 c -0.01762,-0.0466 -0.02228,-9.71867 -0.01035,-21.49356 l 0.02169,-21.40889 3.253932,0.0104 3.253931,0.0104 1.515268,2.77184 c 0.833397,1.52451 3.612822,6.61994 6.1765,11.32317 2.563677,4.70323 4.704246,8.59806 4.756819,8.65516 0.09912,0.10766 0.1157,0.0779 4.919616,-8.82449 1.055384,-1.9558 2.687264,-4.97098 3.626404,-6.7004 l 1.70753,-3.14439 0.0217,5.79878 0.0217,5.79879 -1.51188,2.80661 c -0.83154,1.54363 -2.45862,4.57826 -3.615736,6.74361 -1.157122,2.16535 -2.318232,4.33705 -2.580245,4.826 l -0.476386,0.889 -2.110293,0.0197 -2.110293,0.0197 -0.812723,-1.50141 c -0.446998,-0.82578 -1.756125,-3.21592 -2.909171,-5.31142 -2.2961,-4.17284 -3.869571,-7.04023 -5.714632,-10.414 -0.662131,-1.21073 -1.23866,-2.23753 -1.281175,-2.28176 -0.04663,-0.0485 -0.07733,6.18236 -0.07736,15.70566 l -6.3e-5,15.7861 H 78.29569 c -1.933148,0 -3.02793,-0.0304 -3.04846,-0.0847 z m 32.14233,-21.39842 -3e-5,-21.52758 2.98453,0.0243 2.98452,0.0243 v 21.48101 21.481 l -2.9845,0.0222 -2.9845,0.0223 z m 21.36501,20.61525 c -0.32643,-0.50059 -3.32399,-5.00875 -6.66125,-10.01813 -3.33726,-5.00938 -6.06774,-9.12996 -6.06774,-9.15683 0,-0.0269 1.45732,-0.0676 3.2385,-0.0905 2.50936,-0.0322 3.40052,-0.0728 3.95816,-0.18 2.93171,-0.56377 4.95212,-1.80277 6.17193,-3.7849 0.85704,-1.39265 1.21976,-2.84241 1.21539,-4.85784 -0.009,-4.09769 -1.8388,-6.81826 -5.38857,-8.01134 -1.63408,-0.54921 -2.14854,-0.60662 -5.78876,-0.64594 l -3.23968,-0.035 0.0224,-2.66369 0.0223,-2.66368 3.556,0.005 c 3.71468,0.005 4.44254,0.0521 6.06057,0.39028 3.07739,0.64327 5.83028,2.15923 7.57284,4.17022 1.50609,1.73809 2.45268,3.69797 2.97138,6.15217 0.17468,0.82652 0.22312,1.33971 0.25973,2.75167 0.0498,1.92039 -0.062,3.06985 -0.44026,4.5256 -0.90789,3.49427 -3.17211,6.40988 -6.4417,8.2949 -0.75046,0.43266 -2.28773,1.07727 -2.95522,1.23917 -0.23284,0.0565 -0.45584,0.13191 -0.49557,0.16764 -0.0397,0.0357 0.091,0.30676 0.29048,0.60232 0.64583,0.95685 7.94942,11.58268 9.02508,13.13039 0.57402,0.82593 1.04367,1.52125 1.04367,1.54517 0,0.0239 -1.65064,0.0435 -3.66808,0.0435 h -3.66809 z"
       id="path1"
       sodipodi:nodetypes="cscccsssssccccsscccssscccscccccccccccsssccscsscccccssscscscssscs" /></g></svg>
